<svg xmlns="http://www.w3.org/2000/svg" xmlns:xlink="http://www.w3.org/1999/xlink" viewBox="0 0 26.957 24.579"><defs><style>.a{fill:url(#a);}</style><linearGradient id="a" x1="1.347" y1="-3.639" x2="-0.241" y2="4.127" gradientUnits="objectBoundingBox"><stop offset="0" stop-color="#514a9d"/><stop offset="0.205" stop-color="#92fe9d"/><stop offset="0.851" stop-color="#00c9ff"/><stop offset="1" stop-color="#00c9ff"/></linearGradient></defs><path class="a" d="M892.236,537.2l-5.133,4.924a2.073,2.073,0,0,1-1.44.584H865.3l5.133-4.924a2.036,2.036,0,0,1,1.44-.584Z" transform="translate(-865.3 -518.13)"/><path class="a" d="M893.606,456.024l4.882,4.882H877.477a2.017,2.017,0,0,1-1.461-.605l-1.106-1.106-1.106-1.106a2.053,2.053,0,0,1-.605-1.461v-6.551a2.053,2.053,0,0,1,.605-1.461l1.106-1.106,1.106-1.106a2.052,2.052,0,0,1,1.461-.605h21.032l-4.9,4.924a2.052,2.052,0,0,1-1.461.605H880.774a2.057,2.057,0,0,0-2.066,2.066,2.089,2.089,0,0,0,.584,1.44,2,2,0,0,0,1.44.584h11.413A2.053,2.053,0,0,1,893.606,456.024Z" transform="translate(-871.552 -445.8)"/></svg>